<svg version="1.1" viewBox="0 0 180 180" xmlns="http://www.w3.org/2000/svg">
  <g stroke-linecap="round">
    <path fill="currentColor"
      d="m102.85 3.9785c-7.6902-6.4e-6 -15.382 2.9172-21.215 8.75l-67.881 67.881a6 6 0 0 0 0 8.4863 6 6 0 0 0 8.4844 0l67.883-67.883c7.0797-7.0797 18.376-7.0795 25.455 0 7.08 7.0796 7.08 18.377 0 25.457l-51.264 51.264a6 6 0 0 0 0 8.4863 6 6 0 0 0 8.4844 0l51.266-51.266c11.666-11.665 11.666-30.76 0-42.426-5.8325-5.8329-13.523-8.75-21.213-8.75z" />
    <path fill="currentColor"
      d="m136.79 37.92c-7.6903 0-15.382 2.9173-21.215 8.75l-50.557 50.557a6 6 0 0 0 0 8.4863 6 6 0 0 0 8.4844 0l50.559-50.559c7.0801-7.0798 18.375-7.0798 25.455 0l0.35157 0.35156 2e-3 2e-3c7.08 7.0797 7.08 18.375 0 25.455l-61.393 61.394c-5.4172 5.4168-5.4172 14.382 0 19.799l12.605 12.605a6 6 0 0 0 8.4863 2e-3 6 6 0 0 0 0-8.4863l-12.607-12.607c-0.83124-0.83118-0.83124-1.995 0-2.8262v-2e-3l61.395-61.393c11.665-11.665 11.666-30.758 2e-3 -42.424l-2e-3 -2e-3 -0.35156-0.35352h-2e-3c-5.8329-5.8327-13.523-8.75-21.213-8.75z" />
    <path fill="currentColor"
      d="m102.85 27.941a6 6 0 0 0-4.2422 1.7578l-50.205 50.203c-11.665 11.665-11.665 30.762 0 42.428 11.666 11.665 30.76 11.665 42.426 0l50.205-50.205a6 6 0 0 0 0-8.4863 6 6 0 0 0-8.4863 0l-50.205 50.205c-7.0797 7.0781-18.376 7.0788-25.455 0-7.0799-7.0802-7.0797-18.375 0-25.455l50.205-50.205a6 6 0 0 0 0-8.4844 6 6 0 0 0-4.2422-1.7578z" />
  </g>
</svg>